<?xml version="1.0" encoding="UTF-8"?>
<svg id="Layer_1" xmlns="http://www.w3.org/2000/svg" version="1.1" viewBox="0 0 49.37 49.26">
  <!-- Generator: Adobe Illustrator 29.5.1, SVG Export Plug-In . SVG Version: 2.1.0 Build 141)  -->
  <path d="M38.52,23.51c0-2.68-.03-3.23-.09-4.56-.07-1.53-.31-2.58-.67-3.49-.37-.95-.86-1.75-1.66-2.55s-1.6-1.29-2.55-1.66c-.92-.35-1.96-.6-3.49-.67-1.4-.06-1.94-.08-4.96-.09h-1.95c-3.02,0-3.56.02-4.96.09-1.53.07-2.58.31-3.49.67-.95.37-1.75.86-2.55,1.66s-1.29,1.6-1.66,2.55c-.36.92-.6,1.96-.67,3.49-.07,1.47-.09,1.99-.09,5.47v.93c0,3.48.02,4,.09,5.47.07,1.53.31,2.58.67,3.49.37.95.86,1.75,1.66,2.55s1.6,1.29,2.55,1.66c.92.36,1.96.6,3.49.67,1.54.07,2.03.09,5.94.09s4.4-.02,5.94-.09c1.53-.07,2.58-.31,3.49-.67.95-.37,1.75-.86,2.55-1.66s1.29-1.6,1.66-2.55c.35-.91.6-1.96.67-3.49.06-1.33.08-1.88.09-4.56v-2.75h-.01ZM35.84,30.7c-.07,1.4-.3,2.17-.5,2.67-.26.67-.57,1.15-1.08,1.66-.5.5-.98.82-1.66,1.08-.51.2-1.27.43-2.67.5-1.52.07-1.97.08-5.82.08s-4.3,0-5.82-.08c-1.4-.06-2.16-.3-2.67-.5-.67-.26-1.15-.57-1.66-1.08-.5-.5-.82-.98-1.08-1.66-.2-.51-.43-1.27-.49-2.67-.07-1.52-.08-1.97-.08-5.81s.02-4.3.08-5.82c.06-1.4.3-2.17.49-2.67.26-.67.57-1.15,1.08-1.65.5-.5.98-.82,1.66-1.08.51-.2,1.27-.43,2.67-.5,1.52-.07,1.97-.08,5.82-.08s4.3.02,5.82.08c1.4.06,2.17.3,2.67.5.67.26,1.15.57,1.66,1.08.5.5.81.98,1.08,1.65.2.51.43,1.27.5,2.67.07,1.52.08,1.97.08,5.82s-.02,4.3-.08,5.81Z" fill="#fff"/>
  <path d="M24.13,17.5c-4.08,0-7.39,3.31-7.39,7.39s3.31,7.39,7.39,7.39,7.39-3.31,7.39-7.39-3.31-7.39-7.39-7.39ZM24.13,29.69c-2.65,0-4.8-2.15-4.8-4.8s2.15-4.8,4.8-4.8,4.8,2.15,4.8,4.8-2.15,4.8-4.8,4.8Z" fill="#fff"/>
  <path d="M31.55,15.44c-.95,0-1.73.77-1.73,1.73s.77,1.73,1.73,1.73,1.73-.77,1.73-1.73-.77-1.73-1.73-1.73Z" fill="#fff"/>
</svg>