<?xml version="1.0" encoding="UTF-8"?>
<svg id="Layer_1" xmlns="http://www.w3.org/2000/svg" baseProfile="tiny" version="1.2" viewBox="0 0 40.02 39.99">
  <!-- Generator: Adobe Illustrator 29.5.1, SVG Export Plug-In . SVG Version: 2.1.0 Build 141)  -->
  <path d="M21.96,17.8v-.04s-.02.03-.03.04h.03Z" fill="#fff"/>
  <rect x="10.9" y="15.91" width="4.33" height="13.03" fill="#fff"/>
  <path d="M13.07,14.13h-.03c-1.46,0-2.4-1-2.4-2.25s.97-2.25,2.45-2.25,2.39.97,2.42,2.25c0,1.25-.94,2.25-2.45,2.25h.01Z" fill="#fff"/>
  <path d="M30.86,28.94h-4.33v-6.97c0-1.75-.62-2.95-2.2-2.95-1.2,0-1.91.81-2.22,1.59-.12.28-.14.66-.14,1.06v7.28h-4.33s.06-11.81,0-13.03h4.33v1.85c.58-.89,1.6-2.15,3.91-2.15,2.85,0,4.99,1.86,4.99,5.87v7.48-.03Z" fill="#fff"/>
</svg>